<svg xmlns="http://www.w3.org/2000/svg" width="980" height="560" viewBox="0 0 980 560">
<style>
text{font-family:Arial,Helvetica,sans-serif;fill:#111827}
.title{font-size:22px;font-weight:700}
.subtitle{font-size:13px;fill:#4b5563}
.axis{stroke:#374151;stroke-width:1}
.grid{stroke:#e5e7eb;stroke-width:1}
.tick{font-size:12px;fill:#4b5563}
.label{font-size:13px;fill:#374151}
.legend{font-size:13px;fill:#111827}
</style>
<text class="title" x="40" y="34">API Policy Net Utility</text>
<text class="subtitle" x="40" y="56">100 stratified test episodes, GPT-4.1-mini</text>
<line class="axis" x1="80" y1="440.0" x2="940" y2="440.0"/>
<line class="axis" x1="80" y1="78" x2="80" y2="440"/>
<line class="grid" x1="80" y1="440.0" x2="940" y2="440.0"/>
<text class="tick" x="70" y="444.0" text-anchor="end">0.0</text>
<line class="grid" x1="80" y1="349.5" x2="940" y2="349.5"/>
<text class="tick" x="70" y="353.5" text-anchor="end">0.25</text>
<line class="grid" x1="80" y1="259.0" x2="940" y2="259.0"/>
<text class="tick" x="70" y="263.0" text-anchor="end">0.5</text>
<line class="grid" x1="80" y1="168.5" x2="940" y2="168.5"/>
<text class="tick" x="70" y="172.5" text-anchor="end">0.75</text>
<line class="grid" x1="80" y1="78.0" x2="940" y2="78.0"/>
<text class="tick" x="70" y="82.0" text-anchor="end">1.0</text>
<text class="tick" x="223.3" y="482" text-anchor="middle">DirectAct</text>
<rect x="194.3" y="288.0" width="58.0" height="152.0" fill="#0f766e" rx="2"/>
<text class="tick" x="223.3" y="283.0" text-anchor="middle">0.42</text>
<text class="tick" x="510.0" y="482" text-anchor="middle">Ask-Needed</text>
<rect x="481.0" y="211.0" width="58.0" height="229.0" fill="#0f766e" rx="2"/>
<text class="tick" x="510.0" y="206.0" text-anchor="middle">0.63</text>
<text class="tick" x="796.7" y="482" text-anchor="middle">ECU</text>
<rect x="767.7" y="86.7" width="58.0" height="353.3" fill="#0f766e" rx="2"/>
<text class="tick" x="796.7" y="81.7" text-anchor="middle">0.98</text>
<rect x="80" y="512" width="14" height="14" fill="#0f766e" rx="2"/>
<text class="legend" x="100" y="524">Net utility</text>
<text class="label" transform="translate(22 259.0) rotate(-90)" text-anchor="middle">Net utility</text>
</svg>
