<svg xmlns="http://www.w3.org/2000/svg" width="980" height="560" viewBox="0 0 980 560">
<style>
text{font-family:Arial,Helvetica,sans-serif;fill:#111827}
.title{font-size:22px;font-weight:700}
.subtitle{font-size:13px;fill:#4b5563}
.axis{stroke:#374151;stroke-width:1}
.grid{stroke:#e5e7eb;stroke-width:1}
.tick{font-size:12px;fill:#4b5563}
.label{font-size:13px;fill:#374151}
.legend{font-size:13px;fill:#111827}
</style>
<text class="title" x="40" y="34">API Net Utility by Category</text>
<text class="subtitle" x="40" y="56">Clarification is useful only when it changes expected task utility</text>
<line class="axis" x1="80" y1="367.6" x2="940" y2="367.6"/>
<line class="axis" x1="80" y1="78" x2="80" y2="440"/>
<line class="grid" x1="80" y1="440.0" x2="940" y2="440.0"/>
<text class="tick" x="70" y="444.0" text-anchor="end">-0.25</text>
<line class="grid" x1="80" y1="367.6" x2="940" y2="367.6"/>
<text class="tick" x="70" y="371.6" text-anchor="end">0.0</text>
<line class="grid" x1="80" y1="295.2" x2="940" y2="295.2"/>
<text class="tick" x="70" y="299.2" text-anchor="end">0.25</text>
<line class="grid" x1="80" y1="222.8" x2="940" y2="222.8"/>
<text class="tick" x="70" y="226.8" text-anchor="end">0.5</text>
<line class="grid" x1="80" y1="150.4" x2="940" y2="150.4"/>
<text class="tick" x="70" y="154.4" text-anchor="end">0.75</text>
<line class="grid" x1="80" y1="78.0" x2="940" y2="78.0"/>
<text class="tick" x="70" y="82.0" text-anchor="end">1.0</text>
<text class="tick" x="166.0" y="482" text-anchor="middle">Context</text>
<rect x="96.5" y="78.0" width="41.7" height="289.6" fill="#6b7280" rx="2"/>
<text class="tick" x="117.3" y="73.0" text-anchor="middle">1.00</text>
<rect x="145.2" y="80.2" width="41.7" height="287.4" fill="#d97706" rx="2"/>
<text class="tick" x="166.0" y="75.2" text-anchor="middle">0.99</text>
<rect x="193.8" y="78.0" width="41.7" height="289.6" fill="#0f766e" rx="2"/>
<text class="tick" x="214.7" y="73.0" text-anchor="middle">1.00</text>
<text class="tick" x="338.0" y="482" text-anchor="middle">Preference</text>
<rect x="268.5" y="251.8" width="41.7" height="115.8" fill="#6b7280" rx="2"/>
<text class="tick" x="289.3" y="246.8" text-anchor="middle">0.40</text>
<rect x="317.2" y="251.8" width="41.7" height="115.8" fill="#d97706" rx="2"/>
<text class="tick" x="338.0" y="246.8" text-anchor="middle">0.40</text>
<rect x="365.8" y="83.8" width="41.7" height="283.8" fill="#0f766e" rx="2"/>
<text class="tick" x="386.7" y="78.8" text-anchor="middle">0.98</text>
<text class="tick" x="510.0" y="482" text-anchor="middle">Equivalent</text>
<rect x="440.5" y="78.0" width="41.7" height="289.6" fill="#6b7280" rx="2"/>
<text class="tick" x="461.3" y="73.0" text-anchor="middle">1.00</text>
<rect x="489.2" y="101.2" width="41.7" height="266.4" fill="#d97706" rx="2"/>
<text class="tick" x="510.0" y="96.2" text-anchor="middle">0.92</text>
<rect x="537.8" y="78.0" width="41.7" height="289.6" fill="#0f766e" rx="2"/>
<text class="tick" x="558.7" y="73.0" text-anchor="middle">1.00</text>
<text class="tick" x="682.0" y="482" text-anchor="middle">Referential</text>
<rect x="612.5" y="367.6" width="41.7" height="29.0" fill="#6b7280" rx="2"/>
<text class="tick" x="633.3" y="410.6" text-anchor="middle">-0.10</text>
<rect x="661.2" y="119.3" width="41.7" height="248.3" fill="#d97706" rx="2"/>
<text class="tick" x="682.0" y="114.3" text-anchor="middle">0.86</text>
<rect x="709.8" y="92.5" width="41.7" height="275.1" fill="#0f766e" rx="2"/>
<text class="tick" x="730.7" y="87.5" text-anchor="middle">0.95</text>
<text class="tick" x="854.0" y="482" text-anchor="middle">Risk</text>
<rect x="784.5" y="367.6" width="41.7" height="57.9" fill="#6b7280" rx="2"/>
<text class="tick" x="805.3" y="439.5" text-anchor="middle">-0.20</text>
<rect x="833.2" y="367.6" width="41.7" height="2.2" fill="#d97706" rx="2"/>
<text class="tick" x="854.0" y="383.8" text-anchor="middle">-0.01</text>
<rect x="881.8" y="92.5" width="41.7" height="275.1" fill="#0f766e" rx="2"/>
<text class="tick" x="902.7" y="87.5" text-anchor="middle">0.95</text>
<rect x="80" y="512" width="14" height="14" fill="#6b7280" rx="2"/>
<text class="legend" x="100" y="524">DirectAct</text>
<rect x="235" y="512" width="14" height="14" fill="#d97706" rx="2"/>
<text class="legend" x="255" y="524">Ask-Needed</text>
<rect x="390" y="512" width="14" height="14" fill="#0f766e" rx="2"/>
<text class="legend" x="410" y="524">ECU</text>
<text class="label" transform="translate(22 259.0) rotate(-90)" text-anchor="middle">Net utility</text>
</svg>
