<svg xmlns="http://www.w3.org/2000/svg" width="1260" height="560" viewBox="0 0 1260 560">
<style>
text{font-family:Arial,Helvetica,sans-serif;fill:#111827}
.title{font-size:22px;font-weight:700}
.subtitle{font-size:13px;fill:#4b5563}
.facet{font-size:15px;font-weight:700}
.axis{stroke:#374151;stroke-width:1}
.grid{stroke:#e5e7eb;stroke-width:1}
.tick{font-size:11px;fill:#4b5563}
.legend{font-size:13px;fill:#111827}
.label{font-size:13px;fill:#374151}
</style>
<text class="title" x="40" y="34">Current-Model Category Net Utility</text>
<text class="subtitle" x="40" y="56">Plain prompted Ask-Needed versus expected communicative utility, 100 stratified episodes per model</text>
<text class="facet" x="72.0" y="64">gpt-4.1-mini</text>
<line class="axis" x1="72.0" y1="374.8" x2="433.3" y2="374.8"/>
<line class="axis" x1="72.0" y1="82" x2="72.0" y2="448"/>
<line class="grid" x1="72.0" y1="448.0" x2="433.3" y2="448.0"/>
<text class="tick" x="62.0" y="452.0" text-anchor="end">-0.25</text>
<line class="grid" x1="72.0" y1="374.8" x2="433.3" y2="374.8"/>
<text class="tick" x="62.0" y="378.8" text-anchor="end">0.0</text>
<line class="grid" x1="72.0" y1="301.6" x2="433.3" y2="301.6"/>
<text class="tick" x="62.0" y="305.6" text-anchor="end">0.25</text>
<line class="grid" x1="72.0" y1="228.4" x2="433.3" y2="228.4"/>
<text class="tick" x="62.0" y="232.4" text-anchor="end">0.5</text>
<line class="grid" x1="72.0" y1="155.2" x2="433.3" y2="155.2"/>
<text class="tick" x="62.0" y="159.2" text-anchor="end">0.75</text>
<line class="grid" x1="72.0" y1="82.0" x2="433.3" y2="82.0"/>
<text class="tick" x="62.0" y="86.0" text-anchor="end">1.0</text>
<rect x="82.5" y="84.2" width="22.6" height="290.6" fill="#d97706" rx="2"/>
<text class="tick" x="93.8" y="79.2" text-anchor="middle">0.99</text>
<rect x="111.1" y="82.0" width="22.6" height="292.8" fill="#0f766e" rx="2"/>
<text class="tick" x="122.4" y="77.0" text-anchor="middle">1.00</text>
<text class="tick" x="108.1" y="490" text-anchor="middle">Context</text>
<rect x="154.8" y="257.7" width="22.6" height="117.1" fill="#d97706" rx="2"/>
<text class="tick" x="166.1" y="252.7" text-anchor="middle">0.40</text>
<rect x="183.4" y="87.9" width="22.6" height="286.9" fill="#0f766e" rx="2"/>
<text class="tick" x="194.7" y="82.9" text-anchor="middle">0.98</text>
<text class="tick" x="180.4" y="490" text-anchor="middle">Preference</text>
<rect x="227.1" y="105.4" width="22.6" height="269.4" fill="#d97706" rx="2"/>
<text class="tick" x="238.4" y="100.4" text-anchor="middle">0.92</text>
<rect x="255.7" y="82.0" width="22.6" height="292.8" fill="#0f766e" rx="2"/>
<text class="tick" x="267.0" y="77.0" text-anchor="middle">1.00</text>
<text class="tick" x="252.7" y="490" text-anchor="middle">Equivalent</text>
<rect x="299.4" y="123.7" width="22.6" height="251.1" fill="#d97706" rx="2"/>
<text class="tick" x="310.6" y="118.7" text-anchor="middle">0.86</text>
<rect x="327.9" y="96.6" width="22.6" height="278.2" fill="#0f766e" rx="2"/>
<text class="tick" x="339.2" y="91.6" text-anchor="middle">0.95</text>
<text class="tick" x="324.9" y="490" text-anchor="middle">Referential</text>
<rect x="371.6" y="374.8" width="22.6" height="2.2" fill="#d97706" rx="2"/>
<text class="tick" x="382.9" y="390.0" text-anchor="middle">-0.01</text>
<rect x="400.2" y="96.6" width="22.6" height="278.2" fill="#0f766e" rx="2"/>
<text class="tick" x="411.5" y="91.6" text-anchor="middle">0.95</text>
<text class="tick" x="397.2" y="490" text-anchor="middle">Risk</text>
<text class="facet" x="467.3" y="64">gpt-5.4-mini</text>
<line class="axis" x1="467.3" y1="374.8" x2="828.7" y2="374.8"/>
<line class="axis" x1="467.3" y1="82" x2="467.3" y2="448"/>
<line class="grid" x1="467.3" y1="448.0" x2="828.7" y2="448.0"/>
<line class="grid" x1="467.3" y1="374.8" x2="828.7" y2="374.8"/>
<line class="grid" x1="467.3" y1="301.6" x2="828.7" y2="301.6"/>
<line class="grid" x1="467.3" y1="228.4" x2="828.7" y2="228.4"/>
<line class="grid" x1="467.3" y1="155.2" x2="828.7" y2="155.2"/>
<line class="grid" x1="467.3" y1="82.0" x2="828.7" y2="82.0"/>
<rect x="477.9" y="97.4" width="22.6" height="277.4" fill="#d97706" rx="2"/>
<text class="tick" x="489.2" y="92.4" text-anchor="middle">0.95</text>
<rect x="506.5" y="82.0" width="22.6" height="292.8" fill="#0f766e" rx="2"/>
<text class="tick" x="517.8" y="77.0" text-anchor="middle">1.00</text>
<text class="tick" x="503.5" y="490" text-anchor="middle">Context</text>
<rect x="550.1" y="144.2" width="22.6" height="230.6" fill="#d97706" rx="2"/>
<text class="tick" x="561.4" y="139.2" text-anchor="middle">0.79</text>
<rect x="578.7" y="87.9" width="22.6" height="286.9" fill="#0f766e" rx="2"/>
<text class="tick" x="590.0" y="82.9" text-anchor="middle">0.98</text>
<text class="tick" x="575.7" y="490" text-anchor="middle">Preference</text>
<rect x="622.4" y="111.3" width="22.6" height="263.5" fill="#d97706" rx="2"/>
<text class="tick" x="633.7" y="106.3" text-anchor="middle">0.90</text>
<rect x="651.0" y="82.0" width="22.6" height="292.8" fill="#0f766e" rx="2"/>
<text class="tick" x="662.3" y="77.0" text-anchor="middle">1.00</text>
<text class="tick" x="648.0" y="490" text-anchor="middle">Equivalent</text>
<rect x="694.7" y="96.6" width="22.6" height="278.2" fill="#d97706" rx="2"/>
<text class="tick" x="706.0" y="91.6" text-anchor="middle">0.95</text>
<rect x="723.3" y="96.6" width="22.6" height="278.2" fill="#0f766e" rx="2"/>
<text class="tick" x="734.6" y="91.6" text-anchor="middle">0.95</text>
<text class="tick" x="720.3" y="490" text-anchor="middle">Referential</text>
<rect x="766.9" y="153.0" width="22.6" height="221.8" fill="#d97706" rx="2"/>
<text class="tick" x="778.2" y="148.0" text-anchor="middle">0.76</text>
<rect x="795.5" y="96.6" width="22.6" height="278.2" fill="#0f766e" rx="2"/>
<text class="tick" x="806.8" y="91.6" text-anchor="middle">0.95</text>
<text class="tick" x="792.5" y="490" text-anchor="middle">Risk</text>
<text class="facet" x="862.7" y="64">gpt-5.5</text>
<line class="axis" x1="862.7" y1="374.8" x2="1224.0" y2="374.8"/>
<line class="axis" x1="862.7" y1="82" x2="862.7" y2="448"/>
<line class="grid" x1="862.7" y1="448.0" x2="1224.0" y2="448.0"/>
<line class="grid" x1="862.7" y1="374.8" x2="1224.0" y2="374.8"/>
<line class="grid" x1="862.7" y1="301.6" x2="1224.0" y2="301.6"/>
<line class="grid" x1="862.7" y1="228.4" x2="1224.0" y2="228.4"/>
<line class="grid" x1="862.7" y1="155.2" x2="1224.0" y2="155.2"/>
<line class="grid" x1="862.7" y1="82.0" x2="1224.0" y2="82.0"/>
<rect x="873.2" y="82.0" width="22.6" height="292.8" fill="#d97706" rx="2"/>
<text class="tick" x="884.5" y="77.0" text-anchor="middle">1.00</text>
<rect x="901.8" y="82.0" width="22.6" height="292.8" fill="#0f766e" rx="2"/>
<text class="tick" x="913.1" y="77.0" text-anchor="middle">1.00</text>
<text class="tick" x="898.8" y="490" text-anchor="middle">Context</text>
<rect x="945.5" y="87.9" width="22.6" height="286.9" fill="#d97706" rx="2"/>
<text class="tick" x="956.8" y="82.9" text-anchor="middle">0.98</text>
<rect x="974.1" y="87.9" width="22.6" height="286.9" fill="#0f766e" rx="2"/>
<text class="tick" x="985.4" y="82.9" text-anchor="middle">0.98</text>
<text class="tick" x="971.1" y="490" text-anchor="middle">Preference</text>
<rect x="1017.7" y="84.9" width="22.6" height="289.9" fill="#d97706" rx="2"/>
<text class="tick" x="1029.0" y="79.9" text-anchor="middle">0.99</text>
<rect x="1046.3" y="82.0" width="22.6" height="292.8" fill="#0f766e" rx="2"/>
<text class="tick" x="1057.6" y="77.0" text-anchor="middle">1.00</text>
<text class="tick" x="1043.3" y="490" text-anchor="middle">Equivalent</text>
<rect x="1090.0" y="96.6" width="22.6" height="278.2" fill="#d97706" rx="2"/>
<text class="tick" x="1101.3" y="91.6" text-anchor="middle">0.95</text>
<rect x="1118.6" y="96.6" width="22.6" height="278.2" fill="#0f766e" rx="2"/>
<text class="tick" x="1129.9" y="91.6" text-anchor="middle">0.95</text>
<text class="tick" x="1115.6" y="490" text-anchor="middle">Referential</text>
<rect x="1162.3" y="321.4" width="22.6" height="53.4" fill="#d97706" rx="2"/>
<text class="tick" x="1173.6" y="316.4" text-anchor="middle">0.18</text>
<rect x="1190.9" y="96.6" width="22.6" height="278.2" fill="#0f766e" rx="2"/>
<text class="tick" x="1202.2" y="91.6" text-anchor="middle">0.95</text>
<text class="tick" x="1187.9" y="490" text-anchor="middle">Risk</text>
<rect x="72" y="519" width="14" height="14" fill="#d97706" rx="2"/>
<text class="legend" x="92" y="532">Ask-Needed</text>
<rect x="222" y="519" width="14" height="14" fill="#0f766e" rx="2"/>
<text class="legend" x="242" y="532">ECU</text>
<text class="label" transform="translate(22 265.0) rotate(-90)" text-anchor="middle">Net utility</text>
</svg>
